<?xml version="1.0" encoding="iso-8859-1"?>
<!-- Generator: Adobe Illustrator 19.0.0, SVG Export Plug-In . SVG Version: 6.00 Build 0)  -->
<svg version="1.1" id="Layer_1" xmlns="http://www.w3.org/2000/svg" xmlns:xlink="http://www.w3.org/1999/xlink" x="0px" y="0px"
	 viewBox="0 0 512 512" style="enable-background:new 0 0 512 512;" xml:space="preserve">
<g>
	<g>
		<path d="M384,0H128c-17.643,0-32,14.357-32,32s14.357,32,32,32h256c17.643,0,32-14.357,32-32C416,14.357,401.643,0,384,0z
			 M384,42.667H128c-5.888,0-10.667-4.779-10.667-10.667S122.112,21.333,128,21.333h256c5.888,0,10.667,4.779,10.667,10.667
			S389.888,42.667,384,42.667z"/>
	</g>
</g>
<g>
	<g>
		<path d="M384,448H128c-17.643,0-32,14.357-32,32c0,17.643,14.357,32,32,32h256c17.643,0,32-14.357,32-32
			C416,462.357,401.643,448,384,448z M384,490.667H128c-5.888,0-10.667-4.779-10.667-10.667c0-5.888,4.779-10.667,10.667-10.667h256
			c5.888,0,10.667,4.779,10.667,10.667C394.667,485.888,389.888,490.667,384,490.667z"/>
	</g>
</g>
<g>
	<g>
		<path d="M220.352,247.979l-56.192-49.173c-16.192-14.187-25.493-34.667-25.493-56.192v-89.28c0-5.888-4.779-10.667-10.667-10.667
			s-10.667,4.779-10.667,10.667v89.28c0,27.669,11.947,54.016,32.789,72.256L197.141,256l-47.019,41.131
			c-20.843,18.24-32.789,44.587-32.789,72.256v89.28c0,5.888,4.779,10.667,10.667,10.667s10.667-4.779,10.667-10.667v-89.28
			c0-21.525,9.301-42.005,25.493-56.192l56.192-49.173c2.325-2.027,3.648-4.949,3.648-8.021S222.677,250.005,220.352,247.979z"/>
	</g>
</g>
<g>
	<g>
		<path d="M394.667,142.613v-89.28c0-5.888-4.779-10.667-10.667-10.667c-5.888,0-10.667,4.779-10.667,10.667v89.28
			c0,21.525-9.28,42.005-25.493,56.192l-56.192,49.173C289.323,250.005,288,252.928,288,256s1.323,5.995,3.648,8.021l56.192,49.173
			c16.192,14.187,25.493,34.667,25.493,56.192v89.28c0,5.888,4.779,10.667,10.667,10.667c5.888,0,10.667-4.779,10.667-10.667v-89.28
			c0-27.691-11.947-54.016-32.789-72.256L314.859,256l47.019-41.131C382.72,196.629,394.667,170.283,394.667,142.613z"/>
	</g>
</g>
<g>
	<g>
		<path d="M349.653,409.344L264.32,302.677c-4.053-5.056-12.608-5.056-16.661,0l-85.333,106.667c-2.56,3.2-3.051,7.595-1.28,11.285
			c1.792,3.691,5.525,6.037,9.621,6.037h170.667c4.096,0,7.829-2.347,9.6-6.037C352.704,416.939,352.213,412.544,349.653,409.344z
			 M192.875,405.333L256,326.4l63.147,78.933H192.875z"/>
	</g>
</g>
<g>
	<g>
		<path d="M308.523,177.259c-1.643-3.989-5.547-6.592-9.856-6.592h-85.333c-4.309,0-8.213,2.603-9.856,6.592
			c-1.664,3.989-0.747,8.555,2.304,11.627l42.667,42.667c2.091,2.069,4.821,3.115,7.552,3.115s5.461-1.045,7.552-3.115
			l42.667-42.667C309.269,185.835,310.187,181.248,308.523,177.259z M256,208.917L239.083,192h33.835L256,208.917z"/>
	</g>
</g>
<g>
</g>
<g>
</g>
<g>
</g>
<g>
</g>
<g>
</g>
<g>
</g>
<g>
</g>
<g>
</g>
<g>
</g>
<g>
</g>
<g>
</g>
<g>
</g>
<g>
</g>
<g>
</g>
<g>
</g>
</svg>
